# xmcd
#
# Track frame offsets:
# 150
# 12818
# 22676
# 39831
# 57225
# 70312
# 82113
# 93725
# 110482
# 129041
#
# Disc length: 1923 seconds
#
#
# Revision: 0
# Processed by: cddbd v1.5.2PL0 Copyright (c) Steve Scherf et al.
# Submitted via: FreeRIP 2.951 
#
DISCID=7207810a
DTITLE=Zack Mitchell - He Brought Me Out
DYEAR=1900
DGENRE=Christian
TTITLE0=I'm Headed For That Promise Land
TTITLE1=He Set Me Free
TTITLE2=Reach Out Your Hand
TTITLE3=Go to Galilee
TTITLE4=What's Your Name
TTITLE5=I'm Your Daddy
TTITLE6=New Way
TTITLE7=I Never Thought This Would Be Easy
TTITLE8=He Brought Me Out To Bring Me In
TTITLE9=The Old Rugged Cross
EXTD=
EXTT0=
EXTT1=
EXTT2=
EXTT3=
EXTT4=
EXTT5=
EXTT6=
EXTT7=
EXTT8=
EXTT9=
PLAYORDER=
